<?xml version="1.0" encoding="iso-8859-1"?>
<!-- Uploaded to: SVG Repo, www.svgrepo.com, Generator: SVG Repo Mixer Tools -->
<!DOCTYPE svg PUBLIC "-//W3C//DTD SVG 1.1//EN" "http://www.w3.org/Graphics/SVG/1.1/DTD/svg11.dtd">
<svg fill="#000000" height="800px" width="800px" version="1.1" id="Capa_1" xmlns="http://www.w3.org/2000/svg" xmlns:xlink="http://www.w3.org/1999/xlink" 
	 viewBox="0 0 449.962 449.962" xml:space="preserve">
<path d="M332.626,340.425c-8.809-37.242-9.471-76.213-1.917-112.699c6.925-33.444,8.922-66.74,9.995-84.627
	c0.093-1.554,0.179-2.987,0.261-4.293c0.084-1.34-0.375-2.658-1.273-3.656c-25.305-28.115-21.266-114.031-21.223-114.896
	c0.099-1.944-0.941-3.771-2.664-4.678L287.307,0.576c-1.229-0.647-2.671-0.753-3.98-0.295c-37.625,13.17-79.066,13.17-116.691,0
	c-1.31-0.459-2.752-0.353-3.98,0.295l-28.499,14.999c-1.724,0.907-2.764,2.733-2.664,4.679c0.044,0.864,4.102,86.759-21.223,114.896
	c-0.898,0.998-1.357,2.316-1.273,3.656c0.081,1.304,0.167,2.736,0.261,4.287c1.073,17.888,3.07,51.185,9.995,84.633
	c7.554,36.486,6.892,75.457-1.917,112.699c-9.521,40.258-14.348,70.725-14.348,90.555c0,2.306,1.576,4.313,3.816,4.858
	c38.656,9.416,78.417,14.124,118.178,14.124s79.521-4.708,118.178-14.124c2.24-0.546,3.816-2.553,3.816-4.858
	C346.975,411.152,342.147,380.684,332.626,340.425z M280.348,11.787c0.304,6.856,0.48,15.833,0.255,25.326
	c-7.559,6.447-34.953,32.221-36.77,68.408c-12.313,3.448-25.393,3.448-37.706,0c-1.816-36.182-29.202-61.953-36.766-68.405
	c-0.225-9.494-0.05-18.472,0.253-25.329C205.562,22.938,244.401,22.938,280.348,11.787z M279.918,51.642
	c-1.083,14.804-3.456,28.854-8.146,36.15c-3.534,5.497-9.446,10.179-17.578,13.933C256.846,79.359,270.612,61.438,279.918,51.642z
	 M195.77,101.726c-8.134-3.753-14.047-8.436-17.581-13.934c-4.69-7.295-7.062-21.36-8.144-36.177
	C179.352,61.389,193.125,79.292,195.77,101.726z M113.052,427.05c0.606-18.981,5.42-47.983,14.015-84.324
	c9.142-38.652,9.825-79.12,1.978-117.027c-6.778-32.741-8.748-65.568-9.807-83.205c-0.047-0.793-0.093-1.556-0.138-2.286
	c23.957-29.326,23.044-100.971,22.507-117.253l17.939-9.441c-0.714,18.818-1.007,62.207,10.231,79.688
	c4.812,7.483,12.659,13.638,23.323,18.292c10.132,4.422,21.004,6.632,31.881,6.632c10.874-0.001,21.752-2.211,31.881-6.632
	c10.664-4.654,18.511-10.809,23.322-18.292c11.238-17.482,10.945-60.871,10.232-79.688l17.938,9.441
	c-0.537,16.28-1.445,87.923,22.507,117.253c-0.045,0.732-0.091,1.497-0.139,2.292c-1.058,17.636-3.026,50.462-9.806,83.199
	c-7.848,37.907-7.164,78.375,1.978,117.027c8.596,36.344,13.409,65.345,14.016,84.324
	C263.595,444.266,186.367,444.266,113.052,427.05z"/>
</svg>